<svg id="mermaid-0" width="100%" xmlns="http://www.w3.org/2000/svg" height="106" style="max-width: 156.641px; background-color: white;" viewBox="0 0 156.640625 106"><style>#mermaid-0 {font-family:"trebuchet ms",verdana,arial,sans-serif;font-size:16px;fill:#000000;}#mermaid-0 .error-icon{fill:#552222;}#mermaid-0 .error-text{fill:#552222;stroke:#552222;}#mermaid-0 .edge-thickness-normal{stroke-width:2px;}#mermaid-0 .edge-thickness-thick{stroke-width:3.5px;}#mermaid-0 .edge-pattern-solid{stroke-dasharray:0;}#mermaid-0 .edge-pattern-dashed{stroke-dasharray:3;}#mermaid-0 .edge-pattern-dotted{stroke-dasharray:2;}#mermaid-0 .marker{fill:#000000;stroke:#000000;}#mermaid-0 .marker.cross{stroke:#000000;}#mermaid-0 svg{font-family:"trebuchet ms",verdana,arial,sans-serif;font-size:16px;}#mermaid-0 .entityBox{fill:#cde498;stroke:#13540c;}#mermaid-0 .attributeBoxOdd{fill:#ffffff;stroke:#13540c;}#mermaid-0 .attributeBoxEven{fill:#f2f2f2;stroke:#13540c;}#mermaid-0 .relationshipLabelBox{fill:hsl(78.1578947368, 58.4615384615%, 84.5098039216%);opacity:0.7;background-color:hsl(78.1578947368, 58.4615384615%, 84.5098039216%);}#mermaid-0 .relationshipLabelBox rect{opacity:0.5;}#mermaid-0 .relationshipLine{stroke:#000000;}#mermaid-0 :root{--mermaid-font-family:"trebuchet ms",verdana,arial,sans-serif;}</style><g></g><defs><marker id="ONLY_ONE_START" refX="0" refY="9" markerWidth="18" markerHeight="18" orient="auto"><path stroke="gray" fill="none" d="M9,0 L9,18 M15,0 L15,18"></path></marker></defs><defs><marker id="ONLY_ONE_END" refX="18" refY="9" markerWidth="18" markerHeight="18" orient="auto"><path stroke="gray" fill="none" d="M3,0 L3,18 M9,0 L9,18"></path></marker></defs><defs><marker id="ZERO_OR_ONE_START" refX="0" refY="9" markerWidth="30" markerHeight="18" orient="auto"><circle stroke="gray" fill="white" cx="21" cy="9" r="6"></circle><path stroke="gray" fill="none" d="M9,0 L9,18"></path></marker></defs><defs><marker id="ZERO_OR_ONE_END" refX="30" refY="9" markerWidth="30" markerHeight="18" orient="auto"><circle stroke="gray" fill="white" cx="9" cy="9" r="6"></circle><path stroke="gray" fill="none" d="M21,0 L21,18"></path></marker></defs><defs><marker id="ONE_OR_MORE_START" refX="18" refY="18" markerWidth="45" markerHeight="36" orient="auto"><path stroke="gray" fill="none" d="M0,18 Q 18,0 36,18 Q 18,36 0,18 M42,9 L42,27"></path></marker></defs><defs><marker id="ONE_OR_MORE_END" refX="27" refY="18" markerWidth="45" markerHeight="36" orient="auto"><path stroke="gray" fill="none" d="M3,9 L3,27 M9,18 Q27,0 45,18 Q27,36 9,18"></path></marker></defs><defs><marker id="ZERO_OR_MORE_START" refX="18" refY="18" markerWidth="57" markerHeight="36" orient="auto"><circle stroke="gray" fill="white" cx="48" cy="18" r="6"></circle><path stroke="gray" fill="none" d="M0,18 Q18,0 36,18 Q18,36 0,18"></path></marker></defs><defs><marker id="ZERO_OR_MORE_END" refX="39" refY="18" markerWidth="57" markerHeight="36" orient="auto"><circle stroke="gray" fill="white" cx="9" cy="18" r="6"></circle><path stroke="gray" fill="none" d="M21,18 Q39,0 57,18 Q39,36 21,18"></path></marker></defs><g id="User" transform="translate(20,20 )"><rect class="er entityBox" fill="honeydew" fill-opacity="100%" stroke="gray" x="0" y="0" width="116.640625" height="66"></rect><text class="er entityLabel" id="entity-User" x="0" y="0" dominant-baseline="middle" text-anchor="middle" style="font-family: &quot;trebuchet ms&quot;, verdana, arial, sans-serif;; font-size: 12px" transform="translate(58.3203125,12)">User</text><rect class="er attributeBoxOdd" fill="honeydew" fill-opacity="100%" stroke="gray" x="0" y="24" width="40.40625" height="21"></rect><text class="er entityLabel" id="entity-User-attr-1-type" x="0" y="0" dominant-baseline="middle" text-anchor="left" style="font-family: &quot;trebuchet ms&quot;, verdana, arial, sans-serif;; font-size: 10.2px" transform="translate(5,34.5)">String</text><rect class="er attributeBoxOdd" fill="honeydew" fill-opacity="100%" stroke="gray" x="40.40625" y="24" width="76.234375" height="21"></rect><text class="er entityLabel" id="entity-User-attr-1-name" x="0" y="0" dominant-baseline="middle" text-anchor="left" style="font-family: &quot;trebuchet ms&quot;, verdana, arial, sans-serif;; font-size: 10.2px" transform="translate(45.40625,34.5)">id</text><rect class="er attributeBoxEven" fill="honeydew" fill-opacity="100%" stroke="gray" x="0" y="45" width="40.40625" height="21"></rect><text class="er entityLabel" id="entity-User-attr-2-type" x="0" y="0" dominant-baseline="middle" text-anchor="left" style="font-family: &quot;trebuchet ms&quot;, verdana, arial, sans-serif;; font-size: 10.2px" transform="translate(5,55.5)">String</text><rect class="er attributeBoxEven" fill="honeydew" fill-opacity="100%" stroke="gray" x="40.40625" y="45" width="76.234375" height="21"></rect><text class="er entityLabel" id="entity-User-attr-2-name" x="0" y="0" dominant-baseline="middle" text-anchor="left" style="font-family: &quot;trebuchet ms&quot;, verdana, arial, sans-serif;; font-size: 10.2px" transform="translate(45.40625,55.5)">displayName</text></g></svg>